# xmcd CD database file
#
# Track frame offsets:
#	150
#	14657
#	33564
#	48579
#	61734
#	77357
#
# Disc length: 1201 seconds
#
# Revision: 0
# Processed by: cddbd v1.5.2PL0 Copyright (c) Steve Scherf et al.
# Submitted via: CDex 1.70beta2
#
DISCID=4304af06
DTITLE=Village Boys - Route 66
DYEAR=1996
DGENRE=Country
TTITLE0=Route 66
TTITLE1=Sehnsucht
TTITLE2=Lebe dein Leben
TTITLE3=18 Räder
TTITLE4=Tramper - Lady
TTITLE5=The last ride
EXTD=YEAR: 1996
EXTT0=
EXTT1=
EXTT2=
EXTT3=
EXTT4=
EXTT5=
PLAYORDER=
